<svg class="marks" width="245" height="261" viewBox="0 0 245 261" version="1.1" xmlns="http://www.w3.org/2000/svg" xmlns:xlink="http://www.w3.org/1999/xlink"><rect width="245" height="261" style="fill: white;"></rect><g transform="translate(60,10)"><g class="mark-group role-frame root"><g transform="translate(0,0)"><path class="background" d="M0.5,0.5h180v200h-180Z" style="fill: none; stroke: #ddd;"></path><g><g class="mark-group role-axis"><g transform="translate(0.5,0.5)"><path class="background" d="M0,0h0v0h0Z" style="pointer-events: none; fill: none;"></path><g><g class="mark-rule role-axis-grid" style="pointer-events: none;"><line transform="translate(0,200)" x2="180" y2="0" style="fill: none; stroke: #cbcbcb; stroke-width: 1; opacity: 1;"></line><line transform="translate(0,160)" x2="180" y2="0" style="fill: none; stroke: #cbcbcb; stroke-width: 1; opacity: 1;"></line><line transform="translate(0,120)" x2="180" y2="0" style="fill: none; stroke: #cbcbcb; stroke-width: 1; opacity: 1;"></line><line transform="translate(0,80)" x2="180" y2="0" style="fill: none; stroke: #cbcbcb; stroke-width: 1; opacity: 1;"></line><line transform="translate(0,40)" x2="180" y2="0" style="fill: none; stroke: #cbcbcb; stroke-width: 1; opacity: 1;"></line><line transform="translate(0,0)" x2="180" y2="0" style="fill: none; stroke: #cbcbcb; stroke-width: 1; opacity: 1;"></line></g></g></g></g><g class="mark-rect role-mark marks"><path d="M1,0h18v200h-18Z" style="fill: #30a2da;"></path><path d="M21,89.99999999999999h18v110.00000000000001h-18Z" style="fill: #30a2da;"></path><path d="M41,114h18v86h-18Z" style="fill: #30a2da;"></path><path d="M61,18h18v182h-18Z" style="fill: #30a2da;"></path><path d="M81,38h18v162h-18Z" style="fill: #30a2da;"></path><path d="M101,94h18v106h-18Z" style="fill: #30a2da;"></path><path d="M121,162h18v38h-18Z" style="fill: #30a2da;"></path><path d="M141,26h18v174h-18Z" style="fill: #30a2da;"></path><path d="M161,96h18v104h-18Z" style="fill: #30a2da;"></path></g><g class="mark-group role-axis"><g transform="translate(0.5,200.5)"><path class="background" d="M0,0h0v0h0Z" style="pointer-events: none; fill: none;"></path><g><g class="mark-rule role-axis-tick" style="pointer-events: none;"><line transform="translate(9,0)" x2="0" y2="10" style="fill: none; stroke: #cbcbcb; stroke-width: 1; opacity: 1;"></line><line transform="translate(29,0)" x2="0" y2="10" style="fill: none; stroke: #cbcbcb; stroke-width: 1; opacity: 1;"></line><line transform="translate(49,0)" x2="0" y2="10" style="fill: none; stroke: #cbcbcb; stroke-width: 1; opacity: 1;"></line><line transform="translate(69,0)" x2="0" y2="10" style="fill: none; stroke: #cbcbcb; stroke-width: 1; opacity: 1;"></line><line transform="translate(89,0)" x2="0" y2="10" style="fill: none; stroke: #cbcbcb; stroke-width: 1; opacity: 1;"></line><line transform="translate(109,0)" x2="0" y2="10" style="fill: none; stroke: #cbcbcb; stroke-width: 1; opacity: 1;"></line><line transform="translate(129,0)" x2="0" y2="10" style="fill: none; stroke: #cbcbcb; stroke-width: 1; opacity: 1;"></line><line transform="translate(149,0)" x2="0" y2="10" style="fill: none; stroke: #cbcbcb; stroke-width: 1; opacity: 1;"></line><line transform="translate(169,0)" x2="0" y2="10" style="fill: none; stroke: #cbcbcb; stroke-width: 1; opacity: 1;"></line></g><g class="mark-text role-axis-label" style="pointer-events: none;"><text text-anchor="end" transform="translate(9,14) rotate(270) translate(0,3)" style="font-family: sans-serif; font-size: 10px; fill: #999; opacity: 1;">A</text><text text-anchor="end" transform="translate(29,14) rotate(270) translate(0,3)" style="font-family: sans-serif; font-size: 10px; fill: #999; opacity: 1;">B</text><text text-anchor="end" transform="translate(49,14) rotate(270) translate(0,3)" style="font-family: sans-serif; font-size: 10px; fill: #999; opacity: 1;">C</text><text text-anchor="end" transform="translate(69,14) rotate(270) translate(0,3)" style="font-family: sans-serif; font-size: 10px; fill: #999; opacity: 1;">D</text><text text-anchor="end" transform="translate(89,14) rotate(270) translate(0,3)" style="font-family: sans-serif; font-size: 10px; fill: #999; opacity: 1;">E</text><text text-anchor="end" transform="translate(109,14) rotate(270) translate(0,3)" style="font-family: sans-serif; font-size: 10px; fill: #999; opacity: 1;">F</text><text text-anchor="end" transform="translate(129,14) rotate(270) translate(0,3)" style="font-family: sans-serif; font-size: 10px; fill: #999; opacity: 1;">G</text><text text-anchor="end" transform="translate(149,14) rotate(270) translate(0,3)" style="font-family: sans-serif; font-size: 10px; fill: #999; opacity: 1;">H</text><text text-anchor="end" transform="translate(169,14) rotate(270) translate(0,3)" style="font-family: sans-serif; font-size: 10px; fill: #999; opacity: 1;">I</text></g><g class="mark-rule role-axis-domain" style="pointer-events: none;"><line transform="translate(0,0)" x2="180" y2="0" style="fill: none; stroke: #cbcbcb; stroke-width: 1; opacity: 1;"></line></g><g class="mark-text role-axis-title" style="pointer-events: none;"><text text-anchor="middle" transform="translate(90,42.7783203125)" style="font-family: sans-serif; font-size: 14px; font-weight: bold; fill: #333; opacity: 1;">a</text></g></g></g></g><g class="mark-group role-axis"><g transform="translate(0.5,0.5)"><path class="background" d="M0,0h0v0h0Z" style="pointer-events: none; fill: none;"></path><g><g class="mark-rule role-axis-tick" style="pointer-events: none;"><line transform="translate(0,200)" x2="-10" y2="0" style="fill: none; stroke: #cbcbcb; stroke-width: 1; opacity: 1;"></line><line transform="translate(0,160)" x2="-10" y2="0" style="fill: none; stroke: #cbcbcb; stroke-width: 1; opacity: 1;"></line><line transform="translate(0,120)" x2="-10" y2="0" style="fill: none; stroke: #cbcbcb; stroke-width: 1; opacity: 1;"></line><line transform="translate(0,80)" x2="-10" y2="0" style="fill: none; stroke: #cbcbcb; stroke-width: 1; opacity: 1;"></line><line transform="translate(0,40)" x2="-10" y2="0" style="fill: none; stroke: #cbcbcb; stroke-width: 1; opacity: 1;"></line><line transform="translate(0,0)" x2="-10" y2="0" style="fill: none; stroke: #cbcbcb; stroke-width: 1; opacity: 1;"></line></g><g class="mark-text role-axis-label" style="pointer-events: none;"><text text-anchor="end" transform="translate(-14,203)" style="font-family: sans-serif; font-size: 10px; fill: #999; opacity: 1;">0</text><text text-anchor="end" transform="translate(-14,163)" style="font-family: sans-serif; font-size: 10px; fill: #999; opacity: 1;">20</text><text text-anchor="end" transform="translate(-14,123)" style="font-family: sans-serif; font-size: 10px; fill: #999; opacity: 1;">40</text><text text-anchor="end" transform="translate(-14,83)" style="font-family: sans-serif; font-size: 10px; fill: #999; opacity: 1;">60</text><text text-anchor="end" transform="translate(-14,43)" style="font-family: sans-serif; font-size: 10px; fill: #999; opacity: 1;">80</text><text text-anchor="end" transform="translate(-14,3)" style="font-family: sans-serif; font-size: 10px; fill: #999; opacity: 1;">100</text></g><g class="mark-rule role-axis-domain" style="pointer-events: none;"><line transform="translate(0,200)" x2="0" y2="-200" style="fill: none; stroke: #cbcbcb; stroke-width: 1; opacity: 1;"></line></g><g class="mark-text role-axis-title" style="pointer-events: none;"><text text-anchor="middle" transform="translate(-40.6845703125,100) rotate(-90) translate(0,-3)" style="font-family: sans-serif; font-size: 14px; font-weight: bold; fill: #333; opacity: 1;">b</text></g></g></g></g></g></g></g></g></svg>