<svg class="marks" width="237" height="253" viewBox="0 0 237 253" version="1.1" xmlns="http://www.w3.org/2000/svg" xmlns:xlink="http://www.w3.org/1999/xlink"><rect width="237" height="253" style="fill: white;"></rect><g transform="translate(52,10)"><g class="mark-group role-frame root"><g transform="translate(0,0)"><path class="background" d="M0.5,0.5h180v200h-180Z" style="fill: none; stroke: #ddd;"></path><g><g class="mark-group role-axis"><g transform="translate(0.5,200.5)"><path class="background" d="M0,0h0v0h0Z" style="pointer-events: none; fill: none;"></path><g><g class="mark-rule role-axis-grid" style="pointer-events: none;"><line transform="translate(9,-200)" x2="0" y2="200" style="fill: none; stroke: #FFFFFF; stroke-opacity: 1; stroke-width: 1; opacity: 1;"></line><line transform="translate(29,-200)" x2="0" y2="200" style="fill: none; stroke: #FFFFFF; stroke-opacity: 1; stroke-width: 1; opacity: 1;"></line><line transform="translate(49,-200)" x2="0" y2="200" style="fill: none; stroke: #FFFFFF; stroke-opacity: 1; stroke-width: 1; opacity: 1;"></line><line transform="translate(69,-200)" x2="0" y2="200" style="fill: none; stroke: #FFFFFF; stroke-opacity: 1; stroke-width: 1; opacity: 1;"></line><line transform="translate(89,-200)" x2="0" y2="200" style="fill: none; stroke: #FFFFFF; stroke-opacity: 1; stroke-width: 1; opacity: 1;"></line><line transform="translate(109,-200)" x2="0" y2="200" style="fill: none; stroke: #FFFFFF; stroke-opacity: 1; stroke-width: 1; opacity: 1;"></line><line transform="translate(129,-200)" x2="0" y2="200" style="fill: none; stroke: #FFFFFF; stroke-opacity: 1; stroke-width: 1; opacity: 1;"></line><line transform="translate(149,-200)" x2="0" y2="200" style="fill: none; stroke: #FFFFFF; stroke-opacity: 1; stroke-width: 1; opacity: 1;"></line><line transform="translate(169,-200)" x2="0" y2="200" style="fill: none; stroke: #FFFFFF; stroke-opacity: 1; stroke-width: 1; opacity: 1;"></line></g></g></g></g><g class="mark-group role-axis"><g transform="translate(0.5,0.5)"><path class="background" d="M0,0h0v0h0Z" style="pointer-events: none; fill: none;"></path><g><g class="mark-rule role-axis-grid" style="pointer-events: none;"><line transform="translate(0,200)" x2="180" y2="0" style="fill: none; stroke: #FFFFFF; stroke-opacity: 1; stroke-width: 1; opacity: 1;"></line><line transform="translate(0,160)" x2="180" y2="0" style="fill: none; stroke: #FFFFFF; stroke-opacity: 1; stroke-width: 1; opacity: 1;"></line><line transform="translate(0,120)" x2="180" y2="0" style="fill: none; stroke: #FFFFFF; stroke-opacity: 1; stroke-width: 1; opacity: 1;"></line><line transform="translate(0,80)" x2="180" y2="0" style="fill: none; stroke: #FFFFFF; stroke-opacity: 1; stroke-width: 1; opacity: 1;"></line><line transform="translate(0,40)" x2="180" y2="0" style="fill: none; stroke: #FFFFFF; stroke-opacity: 1; stroke-width: 1; opacity: 1;"></line><line transform="translate(0,0)" x2="180" y2="0" style="fill: none; stroke: #FFFFFF; stroke-opacity: 1; stroke-width: 1; opacity: 1;"></line></g></g></g></g><g class="mark-rect role-mark marks"><path d="M1,0h18v200h-18Z" style="fill: #4c78a8;"></path><path d="M21,89.99999999999999h18v110.00000000000001h-18Z" style="fill: #4c78a8;"></path><path d="M41,114h18v86h-18Z" style="fill: #4c78a8;"></path><path d="M61,18h18v182h-18Z" style="fill: #4c78a8;"></path><path d="M81,38h18v162h-18Z" style="fill: #4c78a8;"></path><path d="M101,94h18v106h-18Z" style="fill: #4c78a8;"></path><path d="M121,162h18v38h-18Z" style="fill: #4c78a8;"></path><path d="M141,26h18v174h-18Z" style="fill: #4c78a8;"></path><path d="M161,96h18v104h-18Z" style="fill: #4c78a8;"></path></g><g class="mark-group role-axis"><g transform="translate(0.5,200.5)"><path class="background" d="M0,0h0v0h0Z" style="pointer-events: none; fill: none;"></path><g><g class="mark-rule role-axis-tick" style="pointer-events: none;"><line transform="translate(9,0)" x2="0" y2="5.67" style="fill: none; stroke: #7F7F7F; stroke-width: 1; opacity: 1;"></line><line transform="translate(29,0)" x2="0" y2="5.67" style="fill: none; stroke: #7F7F7F; stroke-width: 1; opacity: 1;"></line><line transform="translate(49,0)" x2="0" y2="5.67" style="fill: none; stroke: #7F7F7F; stroke-width: 1; opacity: 1;"></line><line transform="translate(69,0)" x2="0" y2="5.67" style="fill: none; stroke: #7F7F7F; stroke-width: 1; opacity: 1;"></line><line transform="translate(89,0)" x2="0" y2="5.67" style="fill: none; stroke: #7F7F7F; stroke-width: 1; opacity: 1;"></line><line transform="translate(109,0)" x2="0" y2="5.67" style="fill: none; stroke: #7F7F7F; stroke-width: 1; opacity: 1;"></line><line transform="translate(129,0)" x2="0" y2="5.67" style="fill: none; stroke: #7F7F7F; stroke-width: 1; opacity: 1;"></line><line transform="translate(149,0)" x2="0" y2="5.67" style="fill: none; stroke: #7F7F7F; stroke-width: 1; opacity: 1;"></line><line transform="translate(169,0)" x2="0" y2="5.67" style="fill: none; stroke: #7F7F7F; stroke-width: 1; opacity: 1;"></line></g><g class="mark-text role-axis-label" style="pointer-events: none;"><text text-anchor="end" transform="translate(9,9.67) rotate(270) translate(0,3)" style="font-family: sans-serif; font-size: 10px; fill: #7F7F7F; opacity: 1;">A</text><text text-anchor="end" transform="translate(29,9.67) rotate(270) translate(0,3)" style="font-family: sans-serif; font-size: 10px; fill: #7F7F7F; opacity: 1;">B</text><text text-anchor="end" transform="translate(49,9.67) rotate(270) translate(0,3)" style="font-family: sans-serif; font-size: 10px; fill: #7F7F7F; opacity: 1;">C</text><text text-anchor="end" transform="translate(69,9.67) rotate(270) translate(0,3)" style="font-family: sans-serif; font-size: 10px; fill: #7F7F7F; opacity: 1;">D</text><text text-anchor="end" transform="translate(89,9.67) rotate(270) translate(0,3)" style="font-family: sans-serif; font-size: 10px; fill: #7F7F7F; opacity: 1;">E</text><text text-anchor="end" transform="translate(109,9.67) rotate(270) translate(0,3)" style="font-family: sans-serif; font-size: 10px; fill: #7F7F7F; opacity: 1;">F</text><text text-anchor="end" transform="translate(129,9.67) rotate(270) translate(0,3)" style="font-family: sans-serif; font-size: 10px; fill: #7F7F7F; opacity: 1;">G</text><text text-anchor="end" transform="translate(149,9.67) rotate(270) translate(0,3)" style="font-family: sans-serif; font-size: 10px; fill: #7F7F7F; opacity: 1;">H</text><text text-anchor="end" transform="translate(169,9.67) rotate(270) translate(0,3)" style="font-family: sans-serif; font-size: 10px; fill: #7F7F7F; opacity: 1;">I</text></g><g class="mark-text role-axis-title" style="pointer-events: none;"><text text-anchor="middle" transform="translate(90,34.44832031249999)" style="font-family: sans-serif; font-size: 16px; font-weight: normal; fill: #000; opacity: 1;">a</text></g></g></g></g><g class="mark-group role-axis"><g transform="translate(0.5,0.5)"><path class="background" d="M0,0h0v0h0Z" style="pointer-events: none; fill: none;"></path><g><g class="mark-rule role-axis-tick" style="pointer-events: none;"><line transform="translate(0,200)" x2="-5.67" y2="0" style="fill: none; stroke: #7F7F7F; stroke-width: 1; opacity: 1;"></line><line transform="translate(0,160)" x2="-5.67" y2="0" style="fill: none; stroke: #7F7F7F; stroke-width: 1; opacity: 1;"></line><line transform="translate(0,120)" x2="-5.67" y2="0" style="fill: none; stroke: #7F7F7F; stroke-width: 1; opacity: 1;"></line><line transform="translate(0,80)" x2="-5.67" y2="0" style="fill: none; stroke: #7F7F7F; stroke-width: 1; opacity: 1;"></line><line transform="translate(0,40)" x2="-5.67" y2="0" style="fill: none; stroke: #7F7F7F; stroke-width: 1; opacity: 1;"></line><line transform="translate(0,0)" x2="-5.67" y2="0" style="fill: none; stroke: #7F7F7F; stroke-width: 1; opacity: 1;"></line></g><g class="mark-text role-axis-label" style="pointer-events: none;"><text text-anchor="end" transform="translate(-9.67,203)" style="font-family: sans-serif; font-size: 10px; fill: #7F7F7F; opacity: 1;">0</text><text text-anchor="end" transform="translate(-9.67,163)" style="font-family: sans-serif; font-size: 10px; fill: #7F7F7F; opacity: 1;">20</text><text text-anchor="end" transform="translate(-9.67,123)" style="font-family: sans-serif; font-size: 10px; fill: #7F7F7F; opacity: 1;">40</text><text text-anchor="end" transform="translate(-9.67,83)" style="font-family: sans-serif; font-size: 10px; fill: #7F7F7F; opacity: 1;">60</text><text text-anchor="end" transform="translate(-9.67,43)" style="font-family: sans-serif; font-size: 10px; fill: #7F7F7F; opacity: 1;">80</text><text text-anchor="end" transform="translate(-9.67,3)" style="font-family: sans-serif; font-size: 10px; fill: #7F7F7F; opacity: 1;">100</text></g><g class="mark-text role-axis-title" style="pointer-events: none;"><text text-anchor="middle" transform="translate(-30.3545703125,100) rotate(-90) translate(0,-3)" style="font-family: sans-serif; font-size: 16px; font-weight: normal; fill: #000; opacity: 1;">b</text></g></g></g></g></g></g></g></g></svg>