<svg class="marks" width="235" height="270" viewBox="0 0 235 270" version="1.1" xmlns="http://www.w3.org/2000/svg" xmlns:xlink="http://www.w3.org/1999/xlink"><rect width="235" height="270" style="fill: white;"></rect><g transform="translate(50,29)"><g class="mark-group role-frame root"><g transform="translate(0,0)"><path class="background" d="M0.5,0.5h180v200h-180Z" style="fill: none; stroke: #ddd;"></path><g><g class="mark-group role-axis"><g transform="translate(0.5,0.5)"><path class="background" d="M0,0h0v0h0Z" style="pointer-events: none; fill: none;"></path><g><g class="mark-rule role-axis-grid" style="pointer-events: none;"><line transform="translate(0,200)" x2="180" y2="0" style="fill: none; stroke: #ddd; stroke-width: 1; opacity: 1;"></line><line transform="translate(0,160)" x2="180" y2="0" style="fill: none; stroke: #ddd; stroke-width: 1; opacity: 1;"></line><line transform="translate(0,120)" x2="180" y2="0" style="fill: none; stroke: #ddd; stroke-width: 1; opacity: 1;"></line><line transform="translate(0,80)" x2="180" y2="0" style="fill: none; stroke: #ddd; stroke-width: 1; opacity: 1;"></line><line transform="translate(0,40)" x2="180" y2="0" style="fill: none; stroke: #ddd; stroke-width: 1; opacity: 1;"></line><line transform="translate(0,0)" x2="180" y2="0" style="fill: none; stroke: #ddd; stroke-width: 1; opacity: 1;"></line></g></g></g></g><g class="mark-rect role-mark marks"><path d="M1,0h18v200h-18Z" style="fill: #4c78a8;"></path><path d="M21,89.99999999999999h18v110.00000000000001h-18Z" style="fill: #4c78a8;"></path><path d="M41,114h18v86h-18Z" style="fill: #4c78a8;"></path><path d="M61,18h18v182h-18Z" style="fill: #4c78a8;"></path><path d="M81,38h18v162h-18Z" style="fill: #4c78a8;"></path><path d="M101,94h18v106h-18Z" style="fill: #4c78a8;"></path><path d="M121,162h18v38h-18Z" style="fill: #4c78a8;"></path><path d="M141,26h18v174h-18Z" style="fill: #4c78a8;"></path><path d="M161,96h18v104h-18Z" style="fill: #4c78a8;"></path></g><g class="mark-group role-axis"><g transform="translate(0.5,200.5)"><path class="background" d="M0,0h0v0h0Z" style="pointer-events: none; fill: none;"></path><g><g class="mark-rule role-axis-tick" style="pointer-events: none;"><line transform="translate(9,0)" x2="0" y2="3" style="fill: none; stroke: #888; stroke-width: 1; opacity: 1;"></line><line transform="translate(29,0)" x2="0" y2="3" style="fill: none; stroke: #888; stroke-width: 1; opacity: 1;"></line><line transform="translate(49,0)" x2="0" y2="3" style="fill: none; stroke: #888; stroke-width: 1; opacity: 1;"></line><line transform="translate(69,0)" x2="0" y2="3" style="fill: none; stroke: #888; stroke-width: 1; opacity: 1;"></line><line transform="translate(89,0)" x2="0" y2="3" style="fill: none; stroke: #888; stroke-width: 1; opacity: 1;"></line><line transform="translate(109,0)" x2="0" y2="3" style="fill: none; stroke: #888; stroke-width: 1; opacity: 1;"></line><line transform="translate(129,0)" x2="0" y2="3" style="fill: none; stroke: #888; stroke-width: 1; opacity: 1;"></line><line transform="translate(149,0)" x2="0" y2="3" style="fill: none; stroke: #888; stroke-width: 1; opacity: 1;"></line><line transform="translate(169,0)" x2="0" y2="3" style="fill: none; stroke: #888; stroke-width: 1; opacity: 1;"></line></g><g class="mark-text role-axis-label" style="pointer-events: none;"><text text-anchor="middle" transform="translate(9,16)" style="font-family: Benton Gothic, sans-serif; font-size: 11.5px; font-weight: normal; fill: #000; opacity: 1;">A</text><text text-anchor="middle" transform="translate(29,16)" style="font-family: Benton Gothic, sans-serif; font-size: 11.5px; font-weight: normal; fill: #000; opacity: 1;">B</text><text text-anchor="middle" transform="translate(49,16)" style="font-family: Benton Gothic, sans-serif; font-size: 11.5px; font-weight: normal; fill: #000; opacity: 1;">C</text><text text-anchor="middle" transform="translate(69,16)" style="font-family: Benton Gothic, sans-serif; font-size: 11.5px; font-weight: normal; fill: #000; opacity: 1;">D</text><text text-anchor="middle" transform="translate(89,16)" style="font-family: Benton Gothic, sans-serif; font-size: 11.5px; font-weight: normal; fill: #000; opacity: 1;">E</text><text text-anchor="middle" transform="translate(109,16)" style="font-family: Benton Gothic, sans-serif; font-size: 11.5px; font-weight: normal; fill: #000; opacity: 1;">F</text><text text-anchor="middle" transform="translate(129,16)" style="font-family: Benton Gothic, sans-serif; font-size: 11.5px; font-weight: normal; fill: #000; opacity: 1;">G</text><text text-anchor="middle" transform="translate(149,16)" style="font-family: Benton Gothic, sans-serif; font-size: 11.5px; font-weight: normal; fill: #000; opacity: 1;">H</text><text text-anchor="middle" transform="translate(169,16)" style="font-family: Benton Gothic, sans-serif; font-size: 11.5px; font-weight: normal; fill: #000; opacity: 1;">I</text></g><g class="mark-rule role-axis-domain" style="pointer-events: none;"><line transform="translate(0,0)" x2="180" y2="0" style="fill: none; stroke: #888; stroke-width: 1; opacity: 1;"></line></g><g class="mark-text role-axis-title" style="pointer-events: none;"><text text-anchor="middle" transform="translate(90,32.5)" style="font-family: Benton Gothic Bold, sans-serif; font-size: 13px; font-weight: normal; fill: #000; opacity: 1;">a</text></g></g></g></g><g class="mark-group role-axis"><g transform="translate(0.5,0.5)"><path class="background" d="M0,0h0v0h0Z" style="pointer-events: none; fill: none;"></path><g><g class="mark-rule role-axis-tick" style="pointer-events: none;"><line transform="translate(0,200)" x2="-2" y2="0" style="fill: none; stroke: #888; stroke-width: 1; opacity: 1;"></line><line transform="translate(0,160)" x2="-2" y2="0" style="fill: none; stroke: #888; stroke-width: 1; opacity: 1;"></line><line transform="translate(0,120)" x2="-2" y2="0" style="fill: none; stroke: #888; stroke-width: 1; opacity: 1;"></line><line transform="translate(0,80)" x2="-2" y2="0" style="fill: none; stroke: #888; stroke-width: 1; opacity: 1;"></line><line transform="translate(0,40)" x2="-2" y2="0" style="fill: none; stroke: #888; stroke-width: 1; opacity: 1;"></line><line transform="translate(0,0)" x2="-2" y2="0" style="fill: none; stroke: #888; stroke-width: 1; opacity: 1;"></line></g><g class="mark-text role-axis-label" style="pointer-events: none;"><text text-anchor="end" transform="translate(-4,203)" style="font-family: Benton Gothic, sans-serif; font-size: 11.5px; font-weight: normal; fill: #000; opacity: 1;">0</text><text text-anchor="end" transform="translate(-4,163)" style="font-family: Benton Gothic, sans-serif; font-size: 11.5px; font-weight: normal; fill: #000; opacity: 1;">20</text><text text-anchor="end" transform="translate(-4,123)" style="font-family: Benton Gothic, sans-serif; font-size: 11.5px; font-weight: normal; fill: #000; opacity: 1;">40</text><text text-anchor="end" transform="translate(-4,83)" style="font-family: Benton Gothic, sans-serif; font-size: 11.5px; font-weight: normal; fill: #000; opacity: 1;">60</text><text text-anchor="end" transform="translate(-4,43)" style="font-family: Benton Gothic, sans-serif; font-size: 11.5px; font-weight: normal; fill: #000; opacity: 1;">80</text><text text-anchor="end" transform="translate(-4,3)" style="font-family: Benton Gothic, sans-serif; font-size: 11.5px; font-weight: normal; fill: #000; opacity: 1;">100</text></g><g class="mark-rule role-axis-domain" style="pointer-events: none;"><line transform="translate(0,200)" x2="0" y2="-200" style="fill: none; stroke: #888; stroke-width: 1; opacity: 1;"></line></g><g class="mark-text role-axis-title" style="pointer-events: none;"><text text-anchor="start" transform="translate(-45,-14)" style="font-family: Benton Gothic Bold, sans-serif; font-size: 13px; font-weight: normal; fill: #000; opacity: 1;">b</text></g></g></g></g></g></g></g></g></svg>